<svg width="20" height="22" viewBox="0 0 20 22" fill="none" xmlns="http://www.w3.org/2000/svg">
<path fill-rule="evenodd" clip-rule="evenodd" d="M10 2.12748C8.97297 2.12748 7.98797 2.53548 7.26172 3.26172C6.53548 3.98797 6.12748 4.97297 6.12748 6.00003V10.1667C6.12748 10.3291 5.9958 10.4608 5.83336 10.4608C5.67093 10.4608 5.53925 10.3291 5.53925 10.1667V6.00003C5.53925 4.81696 6.00922 3.68234 6.84578 2.84578C7.68234 2.00922 8.81696 1.53925 10 1.53925C10.5858 1.53925 11.1659 1.65463 11.7071 1.8788C12.2483 2.10298 12.7401 2.43156 13.1543 2.84578C13.5685 3.26 13.8971 3.75175 14.1213 4.29296C14.3454 4.83417 14.4608 5.41423 14.4608 6.00003V10.1667C14.4608 10.3291 14.3291 10.4608 14.1667 10.4608C14.0043 10.4608 13.8726 10.3291 13.8726 10.1667V6.00003C13.8726 5.49148 13.7724 4.98791 13.5778 4.51807C13.3832 4.04823 13.0979 3.62132 12.7383 3.26172C12.3787 2.90212 11.9518 2.61687 11.482 2.42226C11.0121 2.22765 10.5086 2.12748 10 2.12748Z" fill="#007AFF"/>
<path fill-rule="evenodd" clip-rule="evenodd" d="M2.20587 10.1667C2.20587 10.0042 2.33755 9.87256 2.49999 9.87256H17.5C17.6624 9.87256 17.7941 10.0042 17.7941 10.1667V20.1667C17.7941 20.3291 17.6624 20.4608 17.5 20.4608H2.49999C2.33755 20.4608 2.20587 20.3291 2.20587 20.1667V10.1667ZM2.79411 10.4608V19.8726H17.2059V10.4608H2.79411Z" fill="#007AFF"/>
</svg>
