<svg width="21" height="20" viewBox="0 0 21 20" fill="none" xmlns="http://www.w3.org/2000/svg">
<path opacity="0.4" d="M8.61742 15.9867H1.3833" stroke="#0A84FF" stroke-width="1.5" stroke-linecap="round" stroke-linejoin="round"/>
<path fill-rule="evenodd" clip-rule="evenodd" d="M19.6179 15.9864C19.6179 17.577 18.3285 18.8664 16.7379 18.8664C15.1473 18.8664 13.8579 17.577 13.8579 15.9864C13.8579 14.3947 15.1473 13.1064 16.7379 13.1064C18.3285 13.1064 19.6179 14.3947 19.6179 15.9864Z" stroke="#007AFF" stroke-width="1.5" stroke-linecap="round" stroke-linejoin="round"/>
<path opacity="0.4" d="M12.3828 4.26196H19.6181" stroke="#0A84FF" stroke-width="1.5" stroke-linecap="round" stroke-linejoin="round"/>
<path fill-rule="evenodd" clip-rule="evenodd" d="M1.38281 4.26208C1.38281 5.85384 2.67222 7.14208 4.26281 7.14208C5.8534 7.14208 7.14281 5.85384 7.14281 4.26208C7.14281 2.67149 5.8534 1.38208 4.26281 1.38208C2.67222 1.38208 1.38281 2.67149 1.38281 4.26208Z" stroke="#007AFF" stroke-width="1.5" stroke-linecap="round" stroke-linejoin="round"/>
</svg>
