<svg width="23" height="22" viewBox="0 0 23 22" fill="none" xmlns="http://www.w3.org/2000/svg">
<path opacity="0.4" fill-rule="evenodd" clip-rule="evenodd" d="M15.7853 1H19.0519C20.4035 1 21.4998 2.1059 21.4998 3.47018V6.7641C21.4998 8.12735 20.4035 9.23429 19.0519 9.23429H15.7853C14.4328 9.23429 13.3364 8.12735 13.3364 6.7641V3.47018C13.3364 2.1059 14.4328 1 15.7853 1Z" stroke="#0A84FF" stroke-width="1.5" stroke-linecap="round" stroke-linejoin="round"/>
<path fill-rule="evenodd" clip-rule="evenodd" d="M3.94892 1H7.21449C8.56703 1 9.66341 2.1059 9.66341 3.47018V6.7641C9.66341 8.12735 8.56703 9.23429 7.21449 9.23429H3.94892C2.59638 9.23429 1.5 8.12735 1.5 6.7641V3.47018C1.5 2.1059 2.59638 1 3.94892 1Z" stroke="#007AFF" stroke-width="1.5" stroke-linecap="round" stroke-linejoin="round"/>
<path fill-rule="evenodd" clip-rule="evenodd" d="M3.94892 12.7656H7.21449C8.56703 12.7656 9.66341 13.8715 9.66341 15.2368V18.5297C9.66341 19.894 8.56703 20.9999 7.21449 20.9999H3.94892C2.59638 20.9999 1.5 19.894 1.5 18.5297V15.2368C1.5 13.8715 2.59638 12.7656 3.94892 12.7656Z" stroke="#007AFF" stroke-width="1.5" stroke-linecap="round" stroke-linejoin="round"/>
<path fill-rule="evenodd" clip-rule="evenodd" d="M15.7853 12.7656H19.0519C20.4035 12.7656 21.4998 13.8715 21.4998 15.2368V18.5297C21.4998 19.894 20.4035 20.9999 19.0519 20.9999H15.7853C14.4328 20.9999 13.3364 19.894 13.3364 18.5297V15.2368C13.3364 13.8715 14.4328 12.7656 15.7853 12.7656Z" stroke="#007AFF" stroke-width="1.5" stroke-linecap="round" stroke-linejoin="round"/>
</svg>
